<?xml version="1.0" encoding="UTF-8" standalone="no"?><svg xmlns="http://www.w3.org/2000/svg" xmlns:xlink="http://www.w3.org/1999/xlink" clip-rule="evenodd" stroke-miterlimit="4.00" viewBox="0 0 399 25"><desc>SVG generated by Keynote</desc><defs></defs><g transform="matrix(1.00, 0.00, -0.00, -1.00, 0.0, 25.0)"><text xml:space="preserve" font-family="HelveticaNeue-Light" font-size="28.0" fill="#FEFFFF" transform="matrix(1.00, 0.00, -0.00, -1.00, 2.0, 3.0)">O</text><text xml:space="preserve" font-family="HelveticaNeue-Light" font-size="28.0" fill="#FEFFFF" transform="matrix(1.00, 0.00, -0.00, -1.00, 22.7, 3.0)">P</text><text xml:space="preserve" font-family="HelveticaNeue-Light" font-size="28.0" fill="#FEFFFF" transform="matrix(1.00, 0.00, -0.00, -1.00, 40.4, 3.0)">T</text><text xml:space="preserve" font-family="HelveticaNeue-Light" font-size="28.0" fill="#FEFFFF" transform="matrix(1.00, 0.00, -0.00, -1.00, 56.0, 3.0)">I</text><text xml:space="preserve" font-family="HelveticaNeue-Light" font-size="28.0" fill="#FEFFFF" transform="matrix(1.00, 0.00, -0.00, -1.00, 62.2, 3.0)">O</text><text xml:space="preserve" font-family="HelveticaNeue-Light" font-size="28.0" fill="#FEFFFF" transform="matrix(1.00, 0.00, -0.00, -1.00, 82.9, 3.0)">N</text><text xml:space="preserve" font-family="HelveticaNeue-Light" font-size="28.0" fill="#FEFFFF" transform="matrix(1.00, 0.00, -0.00, -1.00, 102.6, 3.0)"> </text><text xml:space="preserve" font-family="HelveticaNeue-Light" font-size="28.0" fill="#FEFFFF" transform="matrix(1.00, 0.00, -0.00, -1.00, 110.4, 3.0)">3</text><text xml:space="preserve" font-family="HelveticaNeue-Light" font-size="28.0" fill="#FEFFFF" transform="matrix(1.00, 0.00, -0.00, -1.00, 126.0, 3.0)">:</text><text xml:space="preserve" font-family="HelveticaNeue-Light" font-size="28.0" fill="#FEFFFF" transform="matrix(1.00, 0.00, -0.00, -1.00, 133.8, 3.0)"> </text><text xml:space="preserve" font-family="HelveticaNeue-Light" font-size="28.0" fill="#FEFFFF" transform="matrix(1.00, 0.00, -0.00, -1.00, 141.6, 3.0)"> </text><text xml:space="preserve" font-family="HelveticaNeue-Light" font-size="28.0" fill="#FEFFFF" transform="matrix(1.00, 0.00, -0.00, -1.00, 149.3, 3.0)"> </text><text xml:space="preserve" font-family="HelveticaNeue-Light" font-size="28.0" fill="#FEFFFF" transform="matrix(1.00, 0.00, -0.00, -1.00, 157.1, 3.0)"> </text><text xml:space="preserve" font-family="HelveticaNeue-Light" font-size="28.0" fill="#FEFFFF" transform="matrix(1.00, 0.00, -0.00, -1.00, 164.9, 3.0)"> </text><text xml:space="preserve" font-family="HelveticaNeue-Light" font-size="28.0" fill="#FEFFFF" transform="matrix(1.00, 0.00, -0.00, -1.00, 172.7, 3.0)"> </text><text xml:space="preserve" font-family="HelveticaNeue-Light" font-size="28.0" fill="#FEFFFF" transform="matrix(1.00, 0.00, -0.00, -1.00, 180.5, 3.0)"> </text><text xml:space="preserve" font-family="HelveticaNeue-Light" font-size="28.0" fill="#FEFFFF" transform="matrix(1.00, 0.00, -0.00, -1.00, 188.3, 3.0)">D</text><text xml:space="preserve" font-family="HelveticaNeue-Light" font-size="28.0" fill="#FEFFFF" transform="matrix(1.00, 0.00, -0.00, -1.00, 207.4, 3.0)">R</text><text xml:space="preserve" font-family="HelveticaNeue-Light" font-size="28.0" fill="#FEFFFF" transform="matrix(1.00, 0.00, -0.00, -1.00, 226.1, 3.0)">E</text><text xml:space="preserve" font-family="HelveticaNeue-Light" font-size="28.0" fill="#FEFFFF" transform="matrix(1.00, 0.00, -0.00, -1.00, 242.7, 3.0)">A</text><text xml:space="preserve" font-family="HelveticaNeue-Light" font-size="28.0" fill="#FEFFFF" transform="matrix(1.00, 0.00, -0.00, -1.00, 260.4, 3.0)">M</text><text xml:space="preserve" font-family="HelveticaNeue-Light" font-size="28.0" fill="#FEFFFF" transform="matrix(1.00, 0.00, -0.00, -1.00, 283.3, 3.0)"> </text><text xml:space="preserve" font-family="HelveticaNeue-Light" font-size="28.0" fill="#FEFFFF" transform="matrix(1.00, 0.00, -0.00, -1.00, 291.1, 3.0)">S</text><text xml:space="preserve" font-family="HelveticaNeue-Light" font-size="28.0" fill="#FEFFFF" transform="matrix(1.00, 0.00, -0.00, -1.00, 308.8, 3.0)">T</text><text xml:space="preserve" font-family="HelveticaNeue-Light" font-size="28.0" fill="#FEFFFF" transform="matrix(1.00, 0.00, -0.00, -1.00, 324.3, 3.0)">R</text><text xml:space="preserve" font-family="HelveticaNeue-Light" font-size="28.0" fill="#FEFFFF" transform="matrix(1.00, 0.00, -0.00, -1.00, 343.0, 3.0)">E</text><text xml:space="preserve" font-family="HelveticaNeue-Light" font-size="28.0" fill="#FEFFFF" transform="matrix(1.00, 0.00, -0.00, -1.00, 359.6, 3.0)">A</text><text xml:space="preserve" font-family="HelveticaNeue-Light" font-size="28.0" fill="#FEFFFF" transform="matrix(1.00, 0.00, -0.00, -1.00, 377.3, 3.0)">M</text></g></svg>