<?xml version="1.0" encoding="UTF-8" standalone="no"?><svg xmlns="http://www.w3.org/2000/svg" xmlns:xlink="http://www.w3.org/1999/xlink" clip-rule="evenodd" stroke-miterlimit="4.00" viewBox="0 0 173 22"><desc>SVG generated by Keynote</desc><defs></defs><g transform="matrix(1.00, 0.00, -0.00, -1.00, 0.0, 22.0)"><text xml:space="preserve" font-family="HelveticaNeue-Light" font-size="24.0" fill="#000000" transform="matrix(1.00, 0.00, -0.00, -1.00, 0.0, 3.0)">M</text><text xml:space="preserve" font-family="HelveticaNeue-Light" font-size="24.0" fill="#000000" transform="matrix(1.00, 0.00, -0.00, -1.00, 19.7, 3.0)">A</text><text xml:space="preserve" font-family="HelveticaNeue-Light" font-size="24.0" fill="#000000" transform="matrix(1.00, 0.00, -0.00, -1.00, 34.8, 3.0)">G</text><text xml:space="preserve" font-family="HelveticaNeue-Light" font-size="24.0" fill="#000000" transform="matrix(1.00, 0.00, -0.00, -1.00, 52.6, 3.0)">I</text><text xml:space="preserve" font-family="HelveticaNeue-Light" font-size="24.0" fill="#000000" transform="matrix(1.00, 0.00, -0.00, -1.00, 57.9, 3.0)">C</text><text xml:space="preserve" font-family="HelveticaNeue-Light" font-size="24.0" fill="#000000" transform="matrix(1.00, 0.00, -0.00, -1.00, 74.8, 3.0)"> </text><text xml:space="preserve" font-family="HelveticaNeue-Light" font-size="24.0" fill="#000000" transform="matrix(1.00, 0.00, -0.00, -1.00, 81.5, 3.0)">F</text><text xml:space="preserve" font-family="HelveticaNeue-Light" font-size="24.0" fill="#000000" transform="matrix(1.00, 0.00, -0.00, -1.00, 94.4, 3.0)">O</text><text xml:space="preserve" font-family="HelveticaNeue-Light" font-size="24.0" fill="#000000" transform="matrix(1.00, 0.00, -0.00, -1.00, 112.2, 3.0)">R</text><text xml:space="preserve" font-family="HelveticaNeue-Light" font-size="24.0" fill="#000000" transform="matrix(1.00, 0.00, -0.00, -1.00, 128.2, 3.0)">E</text><text xml:space="preserve" font-family="HelveticaNeue-Light" font-size="24.0" fill="#000000" transform="matrix(1.00, 0.00, -0.00, -1.00, 142.4, 3.0)">S</text><text xml:space="preserve" font-family="HelveticaNeue-Light" font-size="24.0" fill="#000000" transform="matrix(1.00, 0.00, -0.00, -1.00, 157.5, 3.0)">T</text></g></svg>