<?xml version="1.0" encoding="UTF-8" standalone="no"?><svg xmlns="http://www.w3.org/2000/svg" xmlns:xlink="http://www.w3.org/1999/xlink" clip-rule="evenodd" stroke-miterlimit="4.00" viewBox="0 0 191 22"><desc>SVG generated by Keynote</desc><defs></defs><g transform="matrix(1.00, 0.00, -0.00, -1.00, 0.0, 22.0)"><text xml:space="preserve" font-family="HelveticaNeue-Light" font-size="24.0" fill="#000000" transform="matrix(1.00, 0.00, -0.00, -1.00, 0.0, 3.0)">R</text><text xml:space="preserve" font-family="HelveticaNeue-Light" font-size="24.0" fill="#000000" transform="matrix(1.00, 0.00, -0.00, -1.00, 16.0, 3.0)">I</text><text xml:space="preserve" font-family="HelveticaNeue-Light" font-size="24.0" fill="#000000" transform="matrix(1.00, 0.00, -0.00, -1.00, 21.3, 3.0)">P</text><text xml:space="preserve" font-family="HelveticaNeue-Light" font-size="24.0" fill="#000000" transform="matrix(1.00, 0.00, -0.00, -1.00, 36.5, 3.0)">P</text><text xml:space="preserve" font-family="HelveticaNeue-Light" font-size="24.0" fill="#000000" transform="matrix(1.00, 0.00, -0.00, -1.00, 51.6, 3.0)">L</text><text xml:space="preserve" font-family="HelveticaNeue-Light" font-size="24.0" fill="#000000" transform="matrix(1.00, 0.00, -0.00, -1.00, 64.5, 3.0)">I</text><text xml:space="preserve" font-family="HelveticaNeue-Light" font-size="24.0" fill="#000000" transform="matrix(1.00, 0.00, -0.00, -1.00, 69.8, 3.0)">N</text><text xml:space="preserve" font-family="HelveticaNeue-Light" font-size="24.0" fill="#000000" transform="matrix(1.00, 0.00, -0.00, -1.00, 86.7, 3.0)">G</text><text xml:space="preserve" font-family="HelveticaNeue-Light" font-size="24.0" fill="#000000" transform="matrix(1.00, 0.00, -0.00, -1.00, 104.5, 3.0)"> </text><text xml:space="preserve" font-family="HelveticaNeue-Light" font-size="24.0" fill="#000000" transform="matrix(1.00, 0.00, -0.00, -1.00, 111.1, 3.0)">W</text><text xml:space="preserve" font-family="HelveticaNeue-Light" font-size="24.0" fill="#000000" transform="matrix(1.00, 0.00, -0.00, -1.00, 132.5, 3.0)">A</text><text xml:space="preserve" font-family="HelveticaNeue-Light" font-size="24.0" fill="#000000" transform="matrix(1.00, 0.00, -0.00, -1.00, 146.0, 3.0)">T</text><text xml:space="preserve" font-family="HelveticaNeue-Light" font-size="24.0" fill="#000000" transform="matrix(1.00, 0.00, -0.00, -1.00, 159.3, 3.0)">E</text><text xml:space="preserve" font-family="HelveticaNeue-Light" font-size="24.0" fill="#000000" transform="matrix(1.00, 0.00, -0.00, -1.00, 173.5, 3.0)">R</text></g></svg>