<?xml version="1.0" encoding="UTF-8" standalone="no"?><svg xmlns="http://www.w3.org/2000/svg" xmlns:xlink="http://www.w3.org/1999/xlink" clip-rule="evenodd" stroke-miterlimit="4.00" viewBox="0 0 135 21"><desc>SVG generated by Keynote</desc><defs></defs><g transform="matrix(1.00, 0.00, -0.00, -1.00, 0.0, 21.0)"><text xml:space="preserve" font-family="HelveticaNeue-Light" font-size="24.0" fill="#000000" transform="matrix(1.00, 0.00, -0.00, -1.00, 2.0, 2.0)">W</text><text xml:space="preserve" font-family="HelveticaNeue-Light" font-size="24.0" fill="#000000" transform="matrix(1.00, 0.00, -0.00, -1.00, 23.3, 2.0)">A</text><text xml:space="preserve" font-family="HelveticaNeue-Light" font-size="24.0" fill="#000000" transform="matrix(1.00, 0.00, -0.00, -1.00, 36.8, 2.0)">T</text><text xml:space="preserve" font-family="HelveticaNeue-Light" font-size="24.0" fill="#000000" transform="matrix(1.00, 0.00, -0.00, -1.00, 50.2, 2.0)">E</text><text xml:space="preserve" font-family="HelveticaNeue-Light" font-size="24.0" fill="#000000" transform="matrix(1.00, 0.00, -0.00, -1.00, 64.4, 2.0)">R</text><text xml:space="preserve" font-family="HelveticaNeue-Light" font-size="24.0" fill="#000000" transform="matrix(1.00, 0.00, -0.00, -1.00, 80.4, 2.0)">F</text><text xml:space="preserve" font-family="HelveticaNeue-Light" font-size="24.0" fill="#000000" transform="matrix(1.00, 0.00, -0.00, -1.00, 92.0, 2.0)">A</text><text xml:space="preserve" font-family="HelveticaNeue-Light" font-size="24.0" fill="#000000" transform="matrix(1.00, 0.00, -0.00, -1.00, 107.1, 2.0)">L</text><text xml:space="preserve" font-family="HelveticaNeue-Light" font-size="24.0" fill="#000000" transform="matrix(1.00, 0.00, -0.00, -1.00, 120.0, 2.0)">L</text></g></svg>