<?xml version="1.0" encoding="UTF-8" standalone="no"?><svg xmlns="http://www.w3.org/2000/svg" xmlns:xlink="http://www.w3.org/1999/xlink" clip-rule="evenodd" stroke-miterlimit="4.00" viewBox="0 0 388 25"><desc>SVG generated by Keynote</desc><defs></defs><g transform="matrix(1.00, 0.00, -0.00, -1.00, 0.0, 25.0)"><text xml:space="preserve" font-family="HelveticaNeue-Light" font-size="28.0" fill="#FEFFFF" transform="matrix(1.00, 0.00, -0.00, -1.00, 0.0, 3.0)">I</text><text xml:space="preserve" font-family="HelveticaNeue-Light" font-size="28.0" fill="#FEFFFF" transform="matrix(1.00, 0.00, -0.00, -1.00, 6.2, 3.0)">N</text><text xml:space="preserve" font-family="HelveticaNeue-Light" font-size="28.0" fill="#FEFFFF" transform="matrix(1.00, 0.00, -0.00, -1.00, 25.9, 3.0)">T</text><text xml:space="preserve" font-family="HelveticaNeue-Light" font-size="28.0" fill="#FEFFFF" transform="matrix(1.00, 0.00, -0.00, -1.00, 41.5, 3.0)">E</text><text xml:space="preserve" font-family="HelveticaNeue-Light" font-size="28.0" fill="#FEFFFF" transform="matrix(1.00, 0.00, -0.00, -1.00, 58.1, 3.0)">R</text><text xml:space="preserve" font-family="HelveticaNeue-Light" font-size="28.0" fill="#FEFFFF" transform="matrix(1.00, 0.00, -0.00, -1.00, 76.8, 3.0)">A</text><text xml:space="preserve" font-family="HelveticaNeue-Light" font-size="28.0" fill="#FEFFFF" transform="matrix(1.00, 0.00, -0.00, -1.00, 94.4, 3.0)">C</text><text xml:space="preserve" font-family="HelveticaNeue-Light" font-size="28.0" fill="#FEFFFF" transform="matrix(1.00, 0.00, -0.00, -1.00, 114.1, 3.0)">T</text><text xml:space="preserve" font-family="HelveticaNeue-Light" font-size="28.0" fill="#FEFFFF" transform="matrix(1.00, 0.00, -0.00, -1.00, 129.7, 3.0)">I</text><text xml:space="preserve" font-family="HelveticaNeue-Light" font-size="28.0" fill="#FEFFFF" transform="matrix(1.00, 0.00, -0.00, -1.00, 135.9, 3.0)">V</text><text xml:space="preserve" font-family="HelveticaNeue-Light" font-size="28.0" fill="#FEFFFF" transform="matrix(1.00, 0.00, -0.00, -1.00, 152.5, 3.0)">E</text><text xml:space="preserve" font-family="HelveticaNeue-Light" font-size="28.0" fill="#FEFFFF" transform="matrix(1.00, 0.00, -0.00, -1.00, 169.1, 3.0)"> </text><text xml:space="preserve" font-family="HelveticaNeue-Light" font-size="28.0" fill="#FEFFFF" transform="matrix(1.00, 0.00, -0.00, -1.00, 176.9, 3.0)">V</text><text xml:space="preserve" font-family="HelveticaNeue-Light" font-size="28.0" fill="#FEFFFF" transform="matrix(1.00, 0.00, -0.00, -1.00, 193.5, 3.0)">I</text><text xml:space="preserve" font-family="HelveticaNeue-Light" font-size="28.0" fill="#FEFFFF" transform="matrix(1.00, 0.00, -0.00, -1.00, 199.7, 3.0)">S</text><text xml:space="preserve" font-family="HelveticaNeue-Light" font-size="28.0" fill="#FEFFFF" transform="matrix(1.00, 0.00, -0.00, -1.00, 217.4, 3.0)">U</text><text xml:space="preserve" font-family="HelveticaNeue-Light" font-size="28.0" fill="#FEFFFF" transform="matrix(1.00, 0.00, -0.00, -1.00, 236.5, 3.0)">A</text><text xml:space="preserve" font-family="HelveticaNeue-Light" font-size="28.0" fill="#FEFFFF" transform="matrix(1.00, 0.00, -0.00, -1.00, 254.2, 3.0)">L</text><text xml:space="preserve" font-family="HelveticaNeue-Light" font-size="28.0" fill="#FEFFFF" transform="matrix(1.00, 0.00, -0.00, -1.00, 269.2, 3.0)">I</text><text xml:space="preserve" font-family="HelveticaNeue-Light" font-size="28.0" fill="#FEFFFF" transform="matrix(1.00, 0.00, -0.00, -1.00, 275.4, 3.0)">Z</text><text xml:space="preserve" font-family="HelveticaNeue-Light" font-size="28.0" fill="#FEFFFF" transform="matrix(1.00, 0.00, -0.00, -1.00, 291.5, 3.0)">A</text><text xml:space="preserve" font-family="HelveticaNeue-Light" font-size="28.0" fill="#FEFFFF" transform="matrix(1.00, 0.00, -0.00, -1.00, 307.2, 3.0)">T</text><text xml:space="preserve" font-family="HelveticaNeue-Light" font-size="28.0" fill="#FEFFFF" transform="matrix(1.00, 0.00, -0.00, -1.00, 322.8, 3.0)">I</text><text xml:space="preserve" font-family="HelveticaNeue-Light" font-size="28.0" fill="#FEFFFF" transform="matrix(1.00, 0.00, -0.00, -1.00, 329.0, 3.0)">O</text><text xml:space="preserve" font-family="HelveticaNeue-Light" font-size="28.0" fill="#FEFFFF" transform="matrix(1.00, 0.00, -0.00, -1.00, 349.8, 3.0)">N</text><text xml:space="preserve" font-family="HelveticaNeue-Light" font-size="28.0" fill="#FEFFFF" transform="matrix(1.00, 0.00, -0.00, -1.00, 369.5, 3.0)">S</text></g></svg>