<?xml version="1.0" encoding="UTF-8" standalone="no"?><svg xmlns="http://www.w3.org/2000/svg" xmlns:xlink="http://www.w3.org/1999/xlink" clip-rule="evenodd" stroke-miterlimit="4.00" viewBox="0 0 212 22"><desc>SVG generated by Keynote</desc><defs></defs><g transform="matrix(1.00, 0.00, -0.00, -1.00, 0.0, 22.0)"><text xml:space="preserve" font-family="HelveticaNeue-Light" font-size="24.0" fill="#000000" transform="matrix(1.00, 0.00, -0.00, -1.00, 0.0, 3.0)">D</text><text xml:space="preserve" font-family="HelveticaNeue-Light" font-size="24.0" fill="#000000" transform="matrix(1.00, 0.00, -0.00, -1.00, 16.4, 3.0)">A</text><text xml:space="preserve" font-family="HelveticaNeue-Light" font-size="24.0" fill="#000000" transform="matrix(1.00, 0.00, -0.00, -1.00, 31.6, 3.0)">N</text><text xml:space="preserve" font-family="HelveticaNeue-Light" font-size="24.0" fill="#000000" transform="matrix(1.00, 0.00, -0.00, -1.00, 48.5, 3.0)">C</text><text xml:space="preserve" font-family="HelveticaNeue-Light" font-size="24.0" fill="#000000" transform="matrix(1.00, 0.00, -0.00, -1.00, 65.4, 3.0)">I</text><text xml:space="preserve" font-family="HelveticaNeue-Light" font-size="24.0" fill="#000000" transform="matrix(1.00, 0.00, -0.00, -1.00, 70.7, 3.0)">N</text><text xml:space="preserve" font-family="HelveticaNeue-Light" font-size="24.0" fill="#000000" transform="matrix(1.00, 0.00, -0.00, -1.00, 87.6, 3.0)">G</text><text xml:space="preserve" font-family="HelveticaNeue-Light" font-size="24.0" fill="#000000" transform="matrix(1.00, 0.00, -0.00, -1.00, 105.4, 3.0)"> </text><text xml:space="preserve" font-family="HelveticaNeue-Light" font-size="24.0" fill="#000000" transform="matrix(1.00, 0.00, -0.00, -1.00, 112.0, 3.0)">A</text><text xml:space="preserve" font-family="HelveticaNeue-Light" font-size="24.0" fill="#000000" transform="matrix(1.00, 0.00, -0.00, -1.00, 126.0, 3.0)">V</text><text xml:space="preserve" font-family="HelveticaNeue-Light" font-size="24.0" fill="#000000" transform="matrix(1.00, 0.00, -0.00, -1.00, 138.9, 3.0)">A</text><text xml:space="preserve" font-family="HelveticaNeue-Light" font-size="24.0" fill="#000000" transform="matrix(1.00, 0.00, -0.00, -1.00, 152.4, 3.0)">T</text><text xml:space="preserve" font-family="HelveticaNeue-Light" font-size="24.0" fill="#000000" transform="matrix(1.00, 0.00, -0.00, -1.00, 164.1, 3.0)">A</text><text xml:space="preserve" font-family="HelveticaNeue-Light" font-size="24.0" fill="#000000" transform="matrix(1.00, 0.00, -0.00, -1.00, 179.2, 3.0)">R</text><text xml:space="preserve" font-family="HelveticaNeue-Light" font-size="24.0" fill="#000000" transform="matrix(1.00, 0.00, -0.00, -1.00, 195.2, 3.0)">S</text></g></svg>