<?xml version="1.0" encoding="UTF-8" standalone="no"?><svg xmlns="http://www.w3.org/2000/svg" xmlns:xlink="http://www.w3.org/1999/xlink" clip-rule="evenodd" stroke-miterlimit="4.00" viewBox="0 0 804 25"><desc>SVG generated by Keynote</desc><defs></defs><g transform="matrix(1.00, 0.00, -0.00, -1.00, 0.0, 25.0)"><text xml:space="preserve" font-family="HelveticaNeue-Light" font-size="28.0" fill="#FEFFFF" transform="matrix(1.00, 0.00, -0.00, -1.00, 2.0, 3.0)">S</text><text xml:space="preserve" font-family="HelveticaNeue-Light" font-size="28.0" fill="#FEFFFF" transform="matrix(1.00, 0.00, -0.00, -1.00, 19.6, 3.0)">P</text><text xml:space="preserve" font-family="HelveticaNeue-Light" font-size="28.0" fill="#FEFFFF" transform="matrix(1.00, 0.00, -0.00, -1.00, 37.3, 3.0)">E</text><text xml:space="preserve" font-family="HelveticaNeue-Light" font-size="28.0" fill="#FEFFFF" transform="matrix(1.00, 0.00, -0.00, -1.00, 53.9, 3.0)">C</text><text xml:space="preserve" font-family="HelveticaNeue-Light" font-size="28.0" fill="#FEFFFF" transform="matrix(1.00, 0.00, -0.00, -1.00, 73.6, 3.0)">I</text><text xml:space="preserve" font-family="HelveticaNeue-Light" font-size="28.0" fill="#FEFFFF" transform="matrix(1.00, 0.00, -0.00, -1.00, 79.8, 3.0)">A</text><text xml:space="preserve" font-family="HelveticaNeue-Light" font-size="28.0" fill="#FEFFFF" transform="matrix(1.00, 0.00, -0.00, -1.00, 97.5, 3.0)">L</text><text xml:space="preserve" font-family="HelveticaNeue-Light" font-size="28.0" fill="#FEFFFF" transform="matrix(1.00, 0.00, -0.00, -1.00, 112.5, 3.0)"> </text><text xml:space="preserve" font-family="HelveticaNeue-Light" font-size="28.0" fill="#FEFFFF" transform="matrix(1.00, 0.00, -0.00, -1.00, 120.3, 3.0)">O</text><text xml:space="preserve" font-family="HelveticaNeue-Light" font-size="28.0" fill="#FEFFFF" transform="matrix(1.00, 0.00, -0.00, -1.00, 141.0, 3.0)">F</text><text xml:space="preserve" font-family="HelveticaNeue-Light" font-size="28.0" fill="#FEFFFF" transform="matrix(1.00, 0.00, -0.00, -1.00, 156.1, 3.0)">F</text><text xml:space="preserve" font-family="HelveticaNeue-Light" font-size="28.0" fill="#FEFFFF" transform="matrix(1.00, 0.00, -0.00, -1.00, 171.1, 3.0)">E</text><text xml:space="preserve" font-family="HelveticaNeue-Light" font-size="28.0" fill="#FEFFFF" transform="matrix(1.00, 0.00, -0.00, -1.00, 187.7, 3.0)">R</text><text xml:space="preserve" font-family="HelveticaNeue-Light" font-size="28.0" fill="#FEFFFF" transform="matrix(1.00, 0.00, -0.00, -1.00, 206.4, 3.0)">S</text><text xml:space="preserve" font-family="HelveticaNeue-Light" font-size="28.0" fill="#FEFFFF" transform="matrix(1.00, 0.00, -0.00, -1.00, 224.0, 3.0)"> </text><text xml:space="preserve" font-family="HelveticaNeue-Light" font-size="28.0" fill="#FEFFFF" transform="matrix(1.00, 0.00, -0.00, -1.00, 231.8, 3.0)">/</text><text xml:space="preserve" font-family="HelveticaNeue-Light" font-size="28.0" fill="#FEFFFF" transform="matrix(1.00, 0.00, -0.00, -1.00, 241.1, 3.0)"> </text><text xml:space="preserve" font-family="HelveticaNeue-Light" font-size="28.0" fill="#FEFFFF" transform="matrix(1.00, 0.00, -0.00, -1.00, 248.9, 3.0)">A</text><text xml:space="preserve" font-family="HelveticaNeue-Light" font-size="28.0" fill="#FEFFFF" transform="matrix(1.00, 0.00, -0.00, -1.00, 266.5, 3.0)">N</text><text xml:space="preserve" font-family="HelveticaNeue-Light" font-size="28.0" fill="#FEFFFF" transform="matrix(1.00, 0.00, -0.00, -1.00, 286.3, 3.0)">N</text><text xml:space="preserve" font-family="HelveticaNeue-Light" font-size="28.0" fill="#FEFFFF" transform="matrix(1.00, 0.00, -0.00, -1.00, 306.0, 3.0)">O</text><text xml:space="preserve" font-family="HelveticaNeue-Light" font-size="28.0" fill="#FEFFFF" transform="matrix(1.00, 0.00, -0.00, -1.00, 326.7, 3.0)">U</text><text xml:space="preserve" font-family="HelveticaNeue-Light" font-size="28.0" fill="#FEFFFF" transform="matrix(1.00, 0.00, -0.00, -1.00, 345.9, 3.0)">N</text><text xml:space="preserve" font-family="HelveticaNeue-Light" font-size="28.0" fill="#FEFFFF" transform="matrix(1.00, 0.00, -0.00, -1.00, 365.6, 3.0)">C</text><text xml:space="preserve" font-family="HelveticaNeue-Light" font-size="28.0" fill="#FEFFFF" transform="matrix(1.00, 0.00, -0.00, -1.00, 385.3, 3.0)">E</text><text xml:space="preserve" font-family="HelveticaNeue-Light" font-size="28.0" fill="#FEFFFF" transform="matrix(1.00, 0.00, -0.00, -1.00, 401.9, 3.0)">M</text><text xml:space="preserve" font-family="HelveticaNeue-Light" font-size="28.0" fill="#FEFFFF" transform="matrix(1.00, 0.00, -0.00, -1.00, 424.9, 3.0)">E</text><text xml:space="preserve" font-family="HelveticaNeue-Light" font-size="28.0" fill="#FEFFFF" transform="matrix(1.00, 0.00, -0.00, -1.00, 441.5, 3.0)">N</text><text xml:space="preserve" font-family="HelveticaNeue-Light" font-size="28.0" fill="#FEFFFF" transform="matrix(1.00, 0.00, -0.00, -1.00, 461.2, 3.0)">T</text><text xml:space="preserve" font-family="HelveticaNeue-Light" font-size="28.0" fill="#FEFFFF" transform="matrix(1.00, 0.00, -0.00, -1.00, 476.8, 3.0)">S</text><text xml:space="preserve" font-family="HelveticaNeue-Light" font-size="28.0" fill="#FEFFFF" transform="matrix(1.00, 0.00, -0.00, -1.00, 494.4, 3.0)"> </text><text xml:space="preserve" font-family="HelveticaNeue-Light" font-size="28.0" fill="#FEFFFF" transform="matrix(1.00, 0.00, -0.00, -1.00, 502.2, 3.0)">/</text><text xml:space="preserve" font-family="HelveticaNeue-Light" font-size="28.0" fill="#FEFFFF" transform="matrix(1.00, 0.00, -0.00, -1.00, 511.5, 3.0)"> </text><text xml:space="preserve" font-family="HelveticaNeue-Light" font-size="28.0" fill="#FEFFFF" transform="matrix(1.00, 0.00, -0.00, -1.00, 519.3, 3.0)">C</text><text xml:space="preserve" font-family="HelveticaNeue-Light" font-size="28.0" fill="#FEFFFF" transform="matrix(1.00, 0.00, -0.00, -1.00, 539.0, 3.0)">O</text><text xml:space="preserve" font-family="HelveticaNeue-Light" font-size="28.0" fill="#FEFFFF" transform="matrix(1.00, 0.00, -0.00, -1.00, 559.8, 3.0)">M</text><text xml:space="preserve" font-family="HelveticaNeue-Light" font-size="28.0" fill="#FEFFFF" transform="matrix(1.00, 0.00, -0.00, -1.00, 582.8, 3.0)">M</text><text xml:space="preserve" font-family="HelveticaNeue-Light" font-size="28.0" fill="#FEFFFF" transform="matrix(1.00, 0.00, -0.00, -1.00, 605.8, 3.0)">E</text><text xml:space="preserve" font-family="HelveticaNeue-Light" font-size="28.0" fill="#FEFFFF" transform="matrix(1.00, 0.00, -0.00, -1.00, 622.4, 3.0)">R</text><text xml:space="preserve" font-family="HelveticaNeue-Light" font-size="28.0" fill="#FEFFFF" transform="matrix(1.00, 0.00, -0.00, -1.00, 641.0, 3.0)">C</text><text xml:space="preserve" font-family="HelveticaNeue-Light" font-size="28.0" fill="#FEFFFF" transform="matrix(1.00, 0.00, -0.00, -1.00, 660.8, 3.0)">I</text><text xml:space="preserve" font-family="HelveticaNeue-Light" font-size="28.0" fill="#FEFFFF" transform="matrix(1.00, 0.00, -0.00, -1.00, 667.0, 3.0)">A</text><text xml:space="preserve" font-family="HelveticaNeue-Light" font-size="28.0" fill="#FEFFFF" transform="matrix(1.00, 0.00, -0.00, -1.00, 684.6, 3.0)">L</text><text xml:space="preserve" font-family="HelveticaNeue-Light" font-size="28.0" fill="#FEFFFF" transform="matrix(1.00, 0.00, -0.00, -1.00, 699.6, 3.0)">S</text><text xml:space="preserve" font-family="HelveticaNeue-Light" font-size="28.0" fill="#FEFFFF" transform="matrix(1.00, 0.00, -0.00, -1.00, 717.3, 3.0)"> </text><text xml:space="preserve" font-family="HelveticaNeue-Light" font-size="28.0" fill="#FEFFFF" transform="matrix(1.00, 0.00, -0.00, -1.00, 725.1, 3.0)">/</text><text xml:space="preserve" font-family="HelveticaNeue-Light" font-size="28.0" fill="#FEFFFF" transform="matrix(1.00, 0.00, -0.00, -1.00, 734.4, 3.0)"> </text><text xml:space="preserve" font-family="HelveticaNeue-Light" font-size="28.0" fill="#FEFFFF" transform="matrix(1.00, 0.00, -0.00, -1.00, 742.2, 3.0)">I</text><text xml:space="preserve" font-family="HelveticaNeue-Light" font-size="28.0" fill="#FEFFFF" transform="matrix(1.00, 0.00, -0.00, -1.00, 748.4, 3.0)">N</text><text xml:space="preserve" font-family="HelveticaNeue-Light" font-size="28.0" fill="#FEFFFF" transform="matrix(1.00, 0.00, -0.00, -1.00, 768.1, 3.0)">F</text><text xml:space="preserve" font-family="HelveticaNeue-Light" font-size="28.0" fill="#FEFFFF" transform="matrix(1.00, 0.00, -0.00, -1.00, 783.1, 3.0)">O</text></g></svg>