<?xml version="1.0" encoding="UTF-8" standalone="no"?><svg xmlns="http://www.w3.org/2000/svg" xmlns:xlink="http://www.w3.org/1999/xlink" clip-rule="evenodd" stroke-miterlimit="4.00" viewBox="0 0 1441 96"><desc>SVG generated by Keynote</desc><defs></defs><g transform="matrix(1.00, 0.00, -0.00, -1.00, 0.0, 96.0)"><text xml:space="preserve" font-family="HelveticaNeue-Light" font-size="24.0" fill="#000000" transform="matrix(1.00, 0.00, -0.00, -1.00, 2.0, 77.0)">V</text><text xml:space="preserve" font-family="HelveticaNeue-Light" font-size="24.0" fill="#000000" transform="matrix(1.00, 0.00, -0.00, -1.00, 16.4, 77.0)">i</text><text xml:space="preserve" font-family="HelveticaNeue-Light" font-size="24.0" fill="#000000" transform="matrix(1.00, 0.00, -0.00, -1.00, 20.8, 77.0)">s</text><text xml:space="preserve" font-family="HelveticaNeue-Light" font-size="24.0" fill="#000000" transform="matrix(1.00, 0.00, -0.00, -1.00, 32.4, 77.0)">u</text><text xml:space="preserve" font-family="HelveticaNeue-Light" font-size="24.0" fill="#000000" transform="matrix(1.00, 0.00, -0.00, -1.00, 45.2, 77.0)">a</text><text xml:space="preserve" font-family="HelveticaNeue-Light" font-size="24.0" fill="#000000" transform="matrix(1.00, 0.00, -0.00, -1.00, 57.7, 77.0)">l</text><text xml:space="preserve" font-family="HelveticaNeue-Light" font-size="24.0" fill="#000000" transform="matrix(1.00, 0.00, -0.00, -1.00, 62.1, 77.0)">l</text><text xml:space="preserve" font-family="HelveticaNeue-Light" font-size="24.0" fill="#000000" transform="matrix(1.00, 0.00, -0.00, -1.00, 66.6, 77.0)">y</text><text xml:space="preserve" font-family="HelveticaNeue-Light" font-size="24.0" fill="#000000" transform="matrix(1.00, 0.00, -0.00, -1.00, 77.7, 77.0)"> </text><text xml:space="preserve" font-family="HelveticaNeue-Light" font-size="24.0" fill="#000000" transform="matrix(1.00, 0.00, -0.00, -1.00, 84.4, 77.0)">a</text><text xml:space="preserve" font-family="HelveticaNeue-Light" font-size="24.0" fill="#000000" transform="matrix(1.00, 0.00, -0.00, -1.00, 96.8, 77.0)">p</text><text xml:space="preserve" font-family="HelveticaNeue-Light" font-size="24.0" fill="#000000" transform="matrix(1.00, 0.00, -0.00, -1.00, 110.6, 77.0)">p</text><text xml:space="preserve" font-family="HelveticaNeue-Light" font-size="24.0" fill="#000000" transform="matrix(1.00, 0.00, -0.00, -1.00, 124.4, 77.0)">e</text><text xml:space="preserve" font-family="HelveticaNeue-Light" font-size="24.0" fill="#000000" transform="matrix(1.00, 0.00, -0.00, -1.00, 136.8, 77.0)">a</text><text xml:space="preserve" font-family="HelveticaNeue-Light" font-size="24.0" fill="#000000" transform="matrix(1.00, 0.00, -0.00, -1.00, 149.3, 77.0)">l</text><text xml:space="preserve" font-family="HelveticaNeue-Light" font-size="24.0" fill="#000000" transform="matrix(1.00, 0.00, -0.00, -1.00, 153.7, 77.0)">i</text><text xml:space="preserve" font-family="HelveticaNeue-Light" font-size="24.0" fill="#000000" transform="matrix(1.00, 0.00, -0.00, -1.00, 158.2, 77.0)">n</text><text xml:space="preserve" font-family="HelveticaNeue-Light" font-size="24.0" fill="#000000" transform="matrix(1.00, 0.00, -0.00, -1.00, 171.1, 77.0)">g</text><text xml:space="preserve" font-family="HelveticaNeue-Light" font-size="24.0" fill="#000000" transform="matrix(1.00, 0.00, -0.00, -1.00, 184.4, 77.0)"> </text><text xml:space="preserve" font-family="HelveticaNeue-Light" font-size="24.0" fill="#000000" transform="matrix(1.00, 0.00, -0.00, -1.00, 191.1, 77.0)">a</text><text xml:space="preserve" font-family="HelveticaNeue-Light" font-size="24.0" fill="#000000" transform="matrix(1.00, 0.00, -0.00, -1.00, 203.5, 77.0)">m</text><text xml:space="preserve" font-family="HelveticaNeue-Light" font-size="24.0" fill="#000000" transform="matrix(1.00, 0.00, -0.00, -1.00, 223.5, 77.0)">b</text><text xml:space="preserve" font-family="HelveticaNeue-Light" font-size="24.0" fill="#000000" transform="matrix(1.00, 0.00, -0.00, -1.00, 237.3, 77.0)">i</text><text xml:space="preserve" font-family="HelveticaNeue-Light" font-size="24.0" fill="#000000" transform="matrix(1.00, 0.00, -0.00, -1.00, 241.7, 77.0)">e</text><text xml:space="preserve" font-family="HelveticaNeue-Light" font-size="24.0" fill="#000000" transform="matrix(1.00, 0.00, -0.00, -1.00, 254.2, 77.0)">n</text><text xml:space="preserve" font-family="HelveticaNeue-Light" font-size="24.0" fill="#000000" transform="matrix(1.00, 0.00, -0.00, -1.00, 267.1, 77.0)">t</text><text xml:space="preserve" font-family="HelveticaNeue-Light" font-size="24.0" fill="#000000" transform="matrix(1.00, 0.00, -0.00, -1.00, 274.2, 77.0)"> </text><text xml:space="preserve" font-family="HelveticaNeue-Light" font-size="24.0" fill="#000000" transform="matrix(1.00, 0.00, -0.00, -1.00, 280.9, 77.0)">v</text><text xml:space="preserve" font-family="HelveticaNeue-Light" font-size="24.0" fill="#000000" transform="matrix(1.00, 0.00, -0.00, -1.00, 292.0, 77.0)">i</text><text xml:space="preserve" font-family="HelveticaNeue-Light" font-size="24.0" fill="#000000" transform="matrix(1.00, 0.00, -0.00, -1.00, 296.4, 77.0)">d</text><text xml:space="preserve" font-family="HelveticaNeue-Light" font-size="24.0" fill="#000000" transform="matrix(1.00, 0.00, -0.00, -1.00, 310.2, 77.0)">e</text><text xml:space="preserve" font-family="HelveticaNeue-Light" font-size="24.0" fill="#000000" transform="matrix(1.00, 0.00, -0.00, -1.00, 322.6, 77.0)">o</text><text xml:space="preserve" font-family="HelveticaNeue-Light" font-size="24.0" fill="#000000" transform="matrix(1.00, 0.00, -0.00, -1.00, 336.0, 77.0)"> </text><text xml:space="preserve" font-family="HelveticaNeue-Light" font-size="24.0" fill="#000000" transform="matrix(1.00, 0.00, -0.00, -1.00, 342.7, 77.0)">c</text><text xml:space="preserve" font-family="HelveticaNeue-Light" font-size="24.0" fill="#000000" transform="matrix(1.00, 0.00, -0.00, -1.00, 355.1, 77.0)">o</text><text xml:space="preserve" font-family="HelveticaNeue-Light" font-size="24.0" fill="#000000" transform="matrix(1.00, 0.00, -0.00, -1.00, 368.5, 77.0)">n</text><text xml:space="preserve" font-family="HelveticaNeue-Light" font-size="24.0" fill="#000000" transform="matrix(1.00, 0.00, -0.00, -1.00, 381.3, 77.0)">t</text><text xml:space="preserve" font-family="HelveticaNeue-Light" font-size="24.0" fill="#000000" transform="matrix(1.00, 0.00, -0.00, -1.00, 388.4, 77.0)">e</text><text xml:space="preserve" font-family="HelveticaNeue-Light" font-size="24.0" fill="#000000" transform="matrix(1.00, 0.00, -0.00, -1.00, 400.9, 77.0)">n</text><text xml:space="preserve" font-family="HelveticaNeue-Light" font-size="24.0" fill="#000000" transform="matrix(1.00, 0.00, -0.00, -1.00, 413.8, 77.0)">t</text><text xml:space="preserve" font-family="HelveticaNeue-Light" font-size="24.0" fill="#000000" transform="matrix(1.00, 0.00, -0.00, -1.00, 420.9, 77.0)"> </text><text xml:space="preserve" font-family="HelveticaNeue-Light" font-size="24.0" fill="#000000" transform="matrix(1.00, 0.00, -0.00, -1.00, 427.6, 77.0)">m</text><text xml:space="preserve" font-family="HelveticaNeue-Light" font-size="24.0" fill="#000000" transform="matrix(1.00, 0.00, -0.00, -1.00, 447.6, 77.0)">a</text><text xml:space="preserve" font-family="HelveticaNeue-Light" font-size="24.0" fill="#000000" transform="matrix(1.00, 0.00, -0.00, -1.00, 460.0, 77.0)">p</text><text xml:space="preserve" font-family="HelveticaNeue-Light" font-size="24.0" fill="#000000" transform="matrix(1.00, 0.00, -0.00, -1.00, 473.8, 77.0)">p</text><text xml:space="preserve" font-family="HelveticaNeue-Light" font-size="24.0" fill="#000000" transform="matrix(1.00, 0.00, -0.00, -1.00, 487.6, 77.0)">e</text><text xml:space="preserve" font-family="HelveticaNeue-Light" font-size="24.0" fill="#000000" transform="matrix(1.00, 0.00, -0.00, -1.00, 500.0, 77.0)">d</text><text xml:space="preserve" font-family="HelveticaNeue-Light" font-size="24.0" fill="#000000" transform="matrix(1.00, 0.00, -0.00, -1.00, 513.8, 77.0)"> </text><text xml:space="preserve" font-family="HelveticaNeue-Light" font-size="24.0" fill="#000000" transform="matrix(1.00, 0.00, -0.00, -1.00, 520.5, 77.0)">o</text><text xml:space="preserve" font-family="HelveticaNeue-Light" font-size="24.0" fill="#000000" transform="matrix(1.00, 0.00, -0.00, -1.00, 533.8, 77.0)">n</text><text xml:space="preserve" font-family="HelveticaNeue-Light" font-size="24.0" fill="#000000" transform="matrix(1.00, 0.00, -0.00, -1.00, 546.7, 77.0)"> </text><text xml:space="preserve" font-family="HelveticaNeue-Light" font-size="24.0" fill="#000000" transform="matrix(1.00, 0.00, -0.00, -1.00, 553.4, 77.0)">L</text><text xml:space="preserve" font-family="HelveticaNeue-Light" font-size="24.0" fill="#000000" transform="matrix(1.00, 0.00, -0.00, -1.00, 566.3, 77.0)">E</text><text xml:space="preserve" font-family="HelveticaNeue-Light" font-size="24.0" fill="#000000" transform="matrix(1.00, 0.00, -0.00, -1.00, 580.5, 77.0)">D</text><text xml:space="preserve" font-family="HelveticaNeue-Light" font-size="24.0" fill="#000000" transform="matrix(1.00, 0.00, -0.00, -1.00, 596.9, 77.0)"> </text><text xml:space="preserve" font-family="HelveticaNeue-Light" font-size="24.0" fill="#000000" transform="matrix(1.00, 0.00, -0.00, -1.00, 603.6, 77.0)">s</text><text xml:space="preserve" font-family="HelveticaNeue-Light" font-size="24.0" fill="#000000" transform="matrix(1.00, 0.00, -0.00, -1.00, 615.2, 77.0)">c</text><text xml:space="preserve" font-family="HelveticaNeue-Light" font-size="24.0" fill="#000000" transform="matrix(1.00, 0.00, -0.00, -1.00, 627.6, 77.0)">r</text><text xml:space="preserve" font-family="HelveticaNeue-Light" font-size="24.0" fill="#000000" transform="matrix(1.00, 0.00, -0.00, -1.00, 634.7, 77.0)">e</text><text xml:space="preserve" font-family="HelveticaNeue-Light" font-size="24.0" fill="#000000" transform="matrix(1.00, 0.00, -0.00, -1.00, 647.2, 77.0)">e</text><text xml:space="preserve" font-family="HelveticaNeue-Light" font-size="24.0" fill="#000000" transform="matrix(1.00, 0.00, -0.00, -1.00, 659.6, 77.0)">n</text><text xml:space="preserve" font-family="HelveticaNeue-Light" font-size="24.0" fill="#000000" transform="matrix(1.00, 0.00, -0.00, -1.00, 672.5, 77.0)">s</text><text xml:space="preserve" font-family="HelveticaNeue-Light" font-size="24.0" fill="#000000" transform="matrix(1.00, 0.00, -0.00, -1.00, 684.1, 77.0)"> </text><text xml:space="preserve" font-family="HelveticaNeue-Light" font-size="24.0" fill="#000000" transform="matrix(1.00, 0.00, -0.00, -1.00, 690.8, 77.0)">w</text><text xml:space="preserve" font-family="HelveticaNeue-Light" font-size="24.0" fill="#000000" transform="matrix(1.00, 0.00, -0.00, -1.00, 708.5, 77.0)">i</text><text xml:space="preserve" font-family="HelveticaNeue-Light" font-size="24.0" fill="#000000" transform="matrix(1.00, 0.00, -0.00, -1.00, 713.0, 77.0)">t</text><text xml:space="preserve" font-family="HelveticaNeue-Light" font-size="24.0" fill="#000000" transform="matrix(1.00, 0.00, -0.00, -1.00, 720.1, 77.0)">h</text><text xml:space="preserve" font-family="HelveticaNeue-Light" font-size="24.0" fill="#000000" transform="matrix(1.00, 0.00, -0.00, -1.00, 733.0, 77.0)">o</text><text xml:space="preserve" font-family="HelveticaNeue-Light" font-size="24.0" fill="#000000" transform="matrix(1.00, 0.00, -0.00, -1.00, 746.3, 77.0)">u</text><text xml:space="preserve" font-family="HelveticaNeue-Light" font-size="24.0" fill="#000000" transform="matrix(1.00, 0.00, -0.00, -1.00, 759.2, 77.0)">t</text><text xml:space="preserve" font-family="HelveticaNeue-Light" font-size="24.0" fill="#000000" transform="matrix(1.00, 0.00, -0.00, -1.00, 766.3, 77.0)"> </text><text xml:space="preserve" font-family="HelveticaNeue-Light" font-size="24.0" fill="#000000" transform="matrix(1.00, 0.00, -0.00, -1.00, 773.0, 77.0)">i</text><text xml:space="preserve" font-family="HelveticaNeue-Light" font-size="24.0" fill="#000000" transform="matrix(1.00, 0.00, -0.00, -1.00, 777.4, 77.0)">n</text><text xml:space="preserve" font-family="HelveticaNeue-Light" font-size="24.0" fill="#000000" transform="matrix(1.00, 0.00, -0.00, -1.00, 790.3, 77.0)">t</text><text xml:space="preserve" font-family="HelveticaNeue-Light" font-size="24.0" fill="#000000" transform="matrix(1.00, 0.00, -0.00, -1.00, 797.4, 77.0)">e</text><text xml:space="preserve" font-family="HelveticaNeue-Light" font-size="24.0" fill="#000000" transform="matrix(1.00, 0.00, -0.00, -1.00, 809.9, 77.0)">r</text><text xml:space="preserve" font-family="HelveticaNeue-Light" font-size="24.0" fill="#000000" transform="matrix(1.00, 0.00, -0.00, -1.00, 817.4, 77.0)">a</text><text xml:space="preserve" font-family="HelveticaNeue-Light" font-size="24.0" fill="#000000" transform="matrix(1.00, 0.00, -0.00, -1.00, 829.9, 77.0)">c</text><text xml:space="preserve" font-family="HelveticaNeue-Light" font-size="24.0" fill="#000000" transform="matrix(1.00, 0.00, -0.00, -1.00, 842.3, 77.0)">t</text><text xml:space="preserve" font-family="HelveticaNeue-Light" font-size="24.0" fill="#000000" transform="matrix(1.00, 0.00, -0.00, -1.00, 849.4, 77.0)">i</text><text xml:space="preserve" font-family="HelveticaNeue-Light" font-size="24.0" fill="#000000" transform="matrix(1.00, 0.00, -0.00, -1.00, 853.9, 77.0)">v</text><text xml:space="preserve" font-family="HelveticaNeue-Light" font-size="24.0" fill="#000000" transform="matrix(1.00, 0.00, -0.00, -1.00, 865.0, 77.0)">e</text><text xml:space="preserve" font-family="HelveticaNeue-Light" font-size="24.0" fill="#000000" transform="matrix(1.00, 0.00, -0.00, -1.00, 877.4, 77.0)"> </text><text xml:space="preserve" font-family="HelveticaNeue-Light" font-size="24.0" fill="#000000" transform="matrix(1.00, 0.00, -0.00, -1.00, 884.1, 77.0)">l</text><text xml:space="preserve" font-family="HelveticaNeue-Light" font-size="24.0" fill="#000000" transform="matrix(1.00, 0.00, -0.00, -1.00, 888.6, 77.0)">a</text><text xml:space="preserve" font-family="HelveticaNeue-Light" font-size="24.0" fill="#000000" transform="matrix(1.00, 0.00, -0.00, -1.00, 901.0, 77.0)">y</text><text xml:space="preserve" font-family="HelveticaNeue-Light" font-size="24.0" fill="#000000" transform="matrix(1.00, 0.00, -0.00, -1.00, 912.1, 77.0)">e</text><text xml:space="preserve" font-family="HelveticaNeue-Light" font-size="24.0" fill="#000000" transform="matrix(1.00, 0.00, -0.00, -1.00, 924.6, 77.0)">r</text><text xml:space="preserve" font-family="HelveticaNeue-Light" font-size="24.0" fill="#000000" transform="matrix(1.00, 0.00, -0.00, -1.00, 929.9, 77.0)">.</text><text xml:space="preserve" font-family="HelveticaNeue-Light" font-size="24.0" fill="#000000" transform="matrix(1.00, 0.00, -0.00, -1.00, 936.6, 77.0)"> </text><text xml:space="preserve" font-family="HelveticaNeue-Light" font-size="24.0" fill="#000000" transform="matrix(1.00, 0.00, -0.00, -1.00, 943.3, 77.0)">O</text><text xml:space="preserve" font-family="HelveticaNeue-Light" font-size="24.0" fill="#000000" transform="matrix(1.00, 0.00, -0.00, -1.00, 961.1, 77.0)">m</text><text xml:space="preserve" font-family="HelveticaNeue-Light" font-size="24.0" fill="#000000" transform="matrix(1.00, 0.00, -0.00, -1.00, 981.1, 77.0)">a</text><text xml:space="preserve" font-family="HelveticaNeue-Light" font-size="24.0" fill="#000000" transform="matrix(1.00, 0.00, -0.00, -1.00, 993.5, 77.0)">n</text><text xml:space="preserve" font-family="HelveticaNeue-Light" font-size="24.0" fill="#000000" transform="matrix(1.00, 0.00, -0.00, -1.00, 1006.4, 77.0)"> </text><text xml:space="preserve" font-family="HelveticaNeue-Light" font-size="24.0" fill="#000000" transform="matrix(1.00, 0.00, -0.00, -1.00, 1013.1, 77.0)">v</text><text xml:space="preserve" font-family="HelveticaNeue-Light" font-size="24.0" fill="#000000" transform="matrix(1.00, 0.00, -0.00, -1.00, 1024.2, 77.0)">i</text><text xml:space="preserve" font-family="HelveticaNeue-Light" font-size="24.0" fill="#000000" transform="matrix(1.00, 0.00, -0.00, -1.00, 1028.6, 77.0)">e</text><text xml:space="preserve" font-family="HelveticaNeue-Light" font-size="24.0" fill="#000000" transform="matrix(1.00, 0.00, -0.00, -1.00, 1041.1, 77.0)">w</text><text xml:space="preserve" font-family="HelveticaNeue-Light" font-size="24.0" fill="#000000" transform="matrix(1.00, 0.00, -0.00, -1.00, 1058.9, 77.0)">s</text><text xml:space="preserve" font-family="HelveticaNeue-Light" font-size="24.0" fill="#000000" transform="matrix(1.00, 0.00, -0.00, -1.00, 1070.4, 77.0)"> </text><text xml:space="preserve" font-family="HelveticaNeue-Light" font-size="24.0" fill="#000000" transform="matrix(1.00, 0.00, -0.00, -1.00, 1077.1, 77.0)">/</text><text xml:space="preserve" font-family="HelveticaNeue-Light" font-size="24.0" fill="#000000" transform="matrix(1.00, 0.00, -0.00, -1.00, 1085.1, 77.0)"> </text><text xml:space="preserve" font-family="HelveticaNeue-Light" font-size="24.0" fill="#000000" transform="matrix(1.00, 0.00, -0.00, -1.00, 1091.7, 77.0)">t</text><text xml:space="preserve" font-family="HelveticaNeue-Light" font-size="24.0" fill="#000000" transform="matrix(1.00, 0.00, -0.00, -1.00, 1098.8, 77.0)">i</text><text xml:space="preserve" font-family="HelveticaNeue-Light" font-size="24.0" fill="#000000" transform="matrix(1.00, 0.00, -0.00, -1.00, 1103.3, 77.0)">m</text><text xml:space="preserve" font-family="HelveticaNeue-Light" font-size="24.0" fill="#000000" transform="matrix(1.00, 0.00, -0.00, -1.00, 1123.3, 77.0)">e</text><text xml:space="preserve" font-family="HelveticaNeue-Light" font-size="24.0" fill="#000000" transform="matrix(1.00, 0.00, -0.00, -1.00, 1135.7, 77.0)"> </text><text xml:space="preserve" font-family="HelveticaNeue-Light" font-size="24.0" fill="#000000" transform="matrix(1.00, 0.00, -0.00, -1.00, 1142.4, 77.0)">l</text><text xml:space="preserve" font-family="HelveticaNeue-Light" font-size="24.0" fill="#000000" transform="matrix(1.00, 0.00, -0.00, -1.00, 1146.8, 77.0)">a</text><text xml:space="preserve" font-family="HelveticaNeue-Light" font-size="24.0" fill="#000000" transform="matrix(1.00, 0.00, -0.00, -1.00, 1159.3, 77.0)">p</text><text xml:space="preserve" font-family="HelveticaNeue-Light" font-size="24.0" fill="#000000" transform="matrix(1.00, 0.00, -0.00, -1.00, 1173.1, 77.0)">s</text><text xml:space="preserve" font-family="HelveticaNeue-Light" font-size="24.0" fill="#000000" transform="matrix(1.00, 0.00, -0.00, -1.00, 1184.6, 77.0)">e</text><text xml:space="preserve" font-family="HelveticaNeue-Light" font-size="24.0" fill="#000000" transform="matrix(1.00, 0.00, -0.00, -1.00, 1197.1, 77.0)">s</text><text xml:space="preserve" font-family="HelveticaNeue-Light" font-size="24.0" fill="#000000" transform="matrix(1.00, 0.00, -0.00, -1.00, 1208.6, 77.0)"> </text><text xml:space="preserve" font-family="HelveticaNeue-Light" font-size="24.0" fill="#000000" transform="matrix(1.00, 0.00, -0.00, -1.00, 1215.3, 77.0)">/</text><text xml:space="preserve" font-family="HelveticaNeue-Light" font-size="24.0" fill="#000000" transform="matrix(1.00, 0.00, -0.00, -1.00, 1223.3, 77.0)"> </text><text xml:space="preserve" font-family="HelveticaNeue-Light" font-size="24.0" fill="#000000" transform="matrix(1.00, 0.00, -0.00, -1.00, 1230.0, 77.0)">m</text><text xml:space="preserve" font-family="HelveticaNeue-Light" font-size="24.0" fill="#000000" transform="matrix(1.00, 0.00, -0.00, -1.00, 1250.0, 77.0)">i</text><text xml:space="preserve" font-family="HelveticaNeue-Light" font-size="24.0" fill="#000000" transform="matrix(1.00, 0.00, -0.00, -1.00, 1254.4, 77.0)">c</text><text xml:space="preserve" font-family="HelveticaNeue-Light" font-size="24.0" fill="#000000" transform="matrix(1.00, 0.00, -0.00, -1.00, 1266.8, 77.0)">r</text><text xml:space="preserve" font-family="HelveticaNeue-Light" font-size="24.0" fill="#000000" transform="matrix(1.00, 0.00, -0.00, -1.00, 1274.0, 77.0)">o</text><text xml:space="preserve" font-family="HelveticaNeue-Light" font-size="24.0" fill="#000000" transform="matrix(1.00, 0.00, -0.00, -1.00, 1287.3, 77.0)"> </text><text xml:space="preserve" font-family="HelveticaNeue-Light" font-size="24.0" fill="#000000" transform="matrix(1.00, 0.00, -0.00, -1.00, 1294.0, 77.0)">f</text><text xml:space="preserve" font-family="HelveticaNeue-Light" font-size="24.0" fill="#000000" transform="matrix(1.00, 0.00, -0.00, -1.00, 1300.2, 77.0)">o</text><text xml:space="preserve" font-family="HelveticaNeue-Light" font-size="24.0" fill="#000000" transform="matrix(1.00, 0.00, -0.00, -1.00, 1313.6, 77.0)">o</text><text xml:space="preserve" font-family="HelveticaNeue-Light" font-size="24.0" fill="#000000" transform="matrix(1.00, 0.00, -0.00, -1.00, 1326.9, 77.0)">t</text><text xml:space="preserve" font-family="HelveticaNeue-Light" font-size="24.0" fill="#000000" transform="matrix(1.00, 0.00, -0.00, -1.00, 1334.0, 77.0)">a</text><text xml:space="preserve" font-family="HelveticaNeue-Light" font-size="24.0" fill="#000000" transform="matrix(1.00, 0.00, -0.00, -1.00, 1346.5, 77.0)">g</text><text xml:space="preserve" font-family="HelveticaNeue-Light" font-size="24.0" fill="#000000" transform="matrix(1.00, 0.00, -0.00, -1.00, 1359.8, 77.0)">e</text><text xml:space="preserve" font-family="HelveticaNeue-Light" font-size="24.0" fill="#000000" transform="matrix(1.00, 0.00, -0.00, -1.00, 1372.3, 77.0)">,</text><text xml:space="preserve" font-family="HelveticaNeue-Light" font-size="24.0" fill="#000000" transform="matrix(1.00, 0.00, -0.00, -1.00, 1378.9, 77.0)"> </text><text xml:space="preserve" font-family="HelveticaNeue-Light" font-size="24.0" fill="#000000" transform="matrix(1.00, 0.00, -0.00, -1.00, 1385.6, 77.0)">o</text><text xml:space="preserve" font-family="HelveticaNeue-Light" font-size="24.0" fill="#000000" transform="matrix(1.00, 0.00, -0.00, -1.00, 1398.9, 77.0)">t</text><text xml:space="preserve" font-family="HelveticaNeue-Light" font-size="24.0" fill="#000000" transform="matrix(1.00, 0.00, -0.00, -1.00, 1406.0, 77.0)">h</text><text xml:space="preserve" font-family="HelveticaNeue-Light" font-size="24.0" fill="#000000" transform="matrix(1.00, 0.00, -0.00, -1.00, 1418.9, 77.0)">e</text><text xml:space="preserve" font-family="HelveticaNeue-Light" font-size="24.0" fill="#000000" transform="matrix(1.00, 0.00, -0.00, -1.00, 1431.4, 77.0)">r</text><text xml:space="preserve" font-family="HelveticaNeue-Light" font-size="24.0" fill="#000000" transform="matrix(1.00, 0.00, -0.00, -1.00, 1439.0, 77.0)"> </text><text xml:space="preserve" font-family="HelveticaNeue-Light" font-size="24.0" fill="#000000" transform="matrix(1.00, 0.00, -0.00, -1.00, 2.0, 42.0)">v</text><text xml:space="preserve" font-family="HelveticaNeue-Light" font-size="24.0" fill="#000000" transform="matrix(1.00, 0.00, -0.00, -1.00, 13.1, 42.0)">i</text><text xml:space="preserve" font-family="HelveticaNeue-Light" font-size="24.0" fill="#000000" transform="matrix(1.00, 0.00, -0.00, -1.00, 17.6, 42.0)">d</text><text xml:space="preserve" font-family="HelveticaNeue-Light" font-size="24.0" fill="#000000" transform="matrix(1.00, 0.00, -0.00, -1.00, 31.3, 42.0)">e</text><text xml:space="preserve" font-family="HelveticaNeue-Light" font-size="24.0" fill="#000000" transform="matrix(1.00, 0.00, -0.00, -1.00, 43.8, 42.0)">o</text><text xml:space="preserve" font-family="HelveticaNeue-Light" font-size="24.0" fill="#000000" transform="matrix(1.00, 0.00, -0.00, -1.00, 57.1, 42.0)"> </text><text xml:space="preserve" font-family="HelveticaNeue-Light" font-size="24.0" fill="#000000" transform="matrix(1.00, 0.00, -0.00, -1.00, 63.8, 42.0)">c</text><text xml:space="preserve" font-family="HelveticaNeue-Light" font-size="24.0" fill="#000000" transform="matrix(1.00, 0.00, -0.00, -1.00, 76.3, 42.0)">o</text><text xml:space="preserve" font-family="HelveticaNeue-Light" font-size="24.0" fill="#000000" transform="matrix(1.00, 0.00, -0.00, -1.00, 89.6, 42.0)">n</text><text xml:space="preserve" font-family="HelveticaNeue-Light" font-size="24.0" fill="#000000" transform="matrix(1.00, 0.00, -0.00, -1.00, 102.5, 42.0)">t</text><text xml:space="preserve" font-family="HelveticaNeue-Light" font-size="24.0" fill="#000000" transform="matrix(1.00, 0.00, -0.00, -1.00, 109.6, 42.0)">e</text><text xml:space="preserve" font-family="HelveticaNeue-Light" font-size="24.0" fill="#000000" transform="matrix(1.00, 0.00, -0.00, -1.00, 122.0, 42.0)">n</text><text xml:space="preserve" font-family="HelveticaNeue-Light" font-size="24.0" fill="#000000" transform="matrix(1.00, 0.00, -0.00, -1.00, 134.9, 42.0)">t</text><text xml:space="preserve" font-family="HelveticaNeue-Light" font-size="24.0" fill="#000000" transform="matrix(1.00, 0.00, -0.00, -1.00, 142.0, 42.0)"> </text><text xml:space="preserve" font-family="HelveticaNeue-Light" font-size="24.0" fill="#000000" transform="matrix(1.00, 0.00, -0.00, -1.00, 148.7, 42.0)">d</text><text xml:space="preserve" font-family="HelveticaNeue-Light" font-size="24.0" fill="#000000" transform="matrix(1.00, 0.00, -0.00, -1.00, 162.5, 42.0)">e</text><text xml:space="preserve" font-family="HelveticaNeue-Light" font-size="24.0" fill="#000000" transform="matrix(1.00, 0.00, -0.00, -1.00, 174.9, 42.0)">s</text><text xml:space="preserve" font-family="HelveticaNeue-Light" font-size="24.0" fill="#000000" transform="matrix(1.00, 0.00, -0.00, -1.00, 186.5, 42.0)">i</text><text xml:space="preserve" font-family="HelveticaNeue-Light" font-size="24.0" fill="#000000" transform="matrix(1.00, 0.00, -0.00, -1.00, 190.9, 42.0)">g</text><text xml:space="preserve" font-family="HelveticaNeue-Light" font-size="24.0" fill="#000000" transform="matrix(1.00, 0.00, -0.00, -1.00, 204.3, 42.0)">n</text><text xml:space="preserve" font-family="HelveticaNeue-Light" font-size="24.0" fill="#000000" transform="matrix(1.00, 0.00, -0.00, -1.00, 217.2, 42.0)">e</text><text xml:space="preserve" font-family="HelveticaNeue-Light" font-size="24.0" fill="#000000" transform="matrix(1.00, 0.00, -0.00, -1.00, 229.6, 42.0)">d</text><text xml:space="preserve" font-family="HelveticaNeue-Light" font-size="24.0" fill="#000000" transform="matrix(1.00, 0.00, -0.00, -1.00, 243.4, 42.0)"> </text><text xml:space="preserve" font-family="HelveticaNeue-Light" font-size="24.0" fill="#000000" transform="matrix(1.00, 0.00, -0.00, -1.00, 250.1, 42.0)">a</text><text xml:space="preserve" font-family="HelveticaNeue-Light" font-size="24.0" fill="#000000" transform="matrix(1.00, 0.00, -0.00, -1.00, 262.5, 42.0)">c</text><text xml:space="preserve" font-family="HelveticaNeue-Light" font-size="24.0" fill="#000000" transform="matrix(1.00, 0.00, -0.00, -1.00, 275.0, 42.0)">c</text><text xml:space="preserve" font-family="HelveticaNeue-Light" font-size="24.0" fill="#000000" transform="matrix(1.00, 0.00, -0.00, -1.00, 287.4, 42.0)">o</text><text xml:space="preserve" font-family="HelveticaNeue-Light" font-size="24.0" fill="#000000" transform="matrix(1.00, 0.00, -0.00, -1.00, 300.8, 42.0)">r</text><text xml:space="preserve" font-family="HelveticaNeue-Light" font-size="24.0" fill="#000000" transform="matrix(1.00, 0.00, -0.00, -1.00, 307.9, 42.0)">d</text><text xml:space="preserve" font-family="HelveticaNeue-Light" font-size="24.0" fill="#000000" transform="matrix(1.00, 0.00, -0.00, -1.00, 321.7, 42.0)">i</text><text xml:space="preserve" font-family="HelveticaNeue-Light" font-size="24.0" fill="#000000" transform="matrix(1.00, 0.00, -0.00, -1.00, 326.1, 42.0)">n</text><text xml:space="preserve" font-family="HelveticaNeue-Light" font-size="24.0" fill="#000000" transform="matrix(1.00, 0.00, -0.00, -1.00, 339.0, 42.0)">g</text><text xml:space="preserve" font-family="HelveticaNeue-Light" font-size="24.0" fill="#000000" transform="matrix(1.00, 0.00, -0.00, -1.00, 352.4, 42.0)"> </text><text xml:space="preserve" font-family="HelveticaNeue-Light" font-size="24.0" fill="#000000" transform="matrix(1.00, 0.00, -0.00, -1.00, 359.0, 42.0)">t</text><text xml:space="preserve" font-family="HelveticaNeue-Light" font-size="24.0" fill="#000000" transform="matrix(1.00, 0.00, -0.00, -1.00, 366.1, 42.0)">o</text><text xml:space="preserve" font-family="HelveticaNeue-Light" font-size="24.0" fill="#000000" transform="matrix(1.00, 0.00, -0.00, -1.00, 379.5, 42.0)"> </text><text xml:space="preserve" font-family="HelveticaNeue-Light" font-size="24.0" fill="#000000" transform="matrix(1.00, 0.00, -0.00, -1.00, 386.1, 42.0)">t</text><text xml:space="preserve" font-family="HelveticaNeue-Light" font-size="24.0" fill="#000000" transform="matrix(1.00, 0.00, -0.00, -1.00, 393.2, 42.0)">h</text><text xml:space="preserve" font-family="HelveticaNeue-Light" font-size="24.0" fill="#000000" transform="matrix(1.00, 0.00, -0.00, -1.00, 406.1, 42.0)">e</text><text xml:space="preserve" font-family="HelveticaNeue-Light" font-size="24.0" fill="#000000" transform="matrix(1.00, 0.00, -0.00, -1.00, 418.6, 42.0)"> </text><text xml:space="preserve" font-family="HelveticaNeue-Light" font-size="24.0" fill="#000000" transform="matrix(1.00, 0.00, -0.00, -1.00, 425.3, 42.0)">m</text><text xml:space="preserve" font-family="HelveticaNeue-Light" font-size="24.0" fill="#000000" transform="matrix(1.00, 0.00, -0.00, -1.00, 445.3, 42.0)">a</text><text xml:space="preserve" font-family="HelveticaNeue-Light" font-size="24.0" fill="#000000" transform="matrix(1.00, 0.00, -0.00, -1.00, 457.7, 42.0)">i</text><text xml:space="preserve" font-family="HelveticaNeue-Light" font-size="24.0" fill="#000000" transform="matrix(1.00, 0.00, -0.00, -1.00, 462.2, 42.0)">n</text><text xml:space="preserve" font-family="HelveticaNeue-Light" font-size="24.0" fill="#000000" transform="matrix(1.00, 0.00, -0.00, -1.00, 475.0, 42.0)"> </text><text xml:space="preserve" font-family="HelveticaNeue-Light" font-size="24.0" fill="#000000" transform="matrix(1.00, 0.00, -0.00, -1.00, 481.7, 42.0)">t</text><text xml:space="preserve" font-family="HelveticaNeue-Light" font-size="24.0" fill="#000000" transform="matrix(1.00, 0.00, -0.00, -1.00, 488.8, 42.0)">h</text><text xml:space="preserve" font-family="HelveticaNeue-Light" font-size="24.0" fill="#000000" transform="matrix(1.00, 0.00, -0.00, -1.00, 501.7, 42.0)">e</text><text xml:space="preserve" font-family="HelveticaNeue-Light" font-size="24.0" fill="#000000" transform="matrix(1.00, 0.00, -0.00, -1.00, 514.2, 42.0)">m</text><text xml:space="preserve" font-family="HelveticaNeue-Light" font-size="24.0" fill="#000000" transform="matrix(1.00, 0.00, -0.00, -1.00, 534.2, 42.0)">e</text><text xml:space="preserve" font-family="HelveticaNeue-Light" font-size="24.0" fill="#000000" transform="matrix(1.00, 0.00, -0.00, -1.00, 546.6, 42.0)"> </text><text xml:space="preserve" font-family="HelveticaNeue-Light" font-size="24.0" fill="#000000" transform="matrix(1.00, 0.00, -0.00, -1.00, 553.3, 42.0)">c</text><text xml:space="preserve" font-family="HelveticaNeue-Light" font-size="24.0" fill="#000000" transform="matrix(1.00, 0.00, -0.00, -1.00, 565.7, 42.0)">h</text><text xml:space="preserve" font-family="HelveticaNeue-Light" font-size="24.0" fill="#000000" transform="matrix(1.00, 0.00, -0.00, -1.00, 578.6, 42.0)">o</text><text xml:space="preserve" font-family="HelveticaNeue-Light" font-size="24.0" fill="#000000" transform="matrix(1.00, 0.00, -0.00, -1.00, 592.0, 42.0)">s</text><text xml:space="preserve" font-family="HelveticaNeue-Light" font-size="24.0" fill="#000000" transform="matrix(1.00, 0.00, -0.00, -1.00, 603.5, 42.0)">e</text><text xml:space="preserve" font-family="HelveticaNeue-Light" font-size="24.0" fill="#000000" transform="matrix(1.00, 0.00, -0.00, -1.00, 616.0, 42.0)">n</text><text xml:space="preserve" font-family="HelveticaNeue-Light" font-size="24.0" fill="#000000" transform="matrix(1.00, 0.00, -0.00, -1.00, 628.9, 42.0)">.</text><text xml:space="preserve" font-family="HelveticaNeue-Light" font-size="24.0" fill="#000000" transform="matrix(1.00, 0.00, -0.00, -1.00, 635.5, 42.0)"> </text><g><clipPath id="clip-1190"><path d="M 248.8 38.0 L 628.5 38.0 L 628.5 41.2 L 248.8 41.2 Z M 248.8 38.0 "></path></clipPath><g clip-path="url(#clip-1190)"><path d="M 253.7 65.9 L 632.5 65.9 " fill="none" stroke="#000000" stroke-width="1.20" stroke-miterlimit="0.00" transform="matrix(1.00, 0.00, 0.00, -1.00, -3.9, 105.5)"></path></g></g><text xml:space="preserve" font-family="HelveticaNeue-Light" font-size="24.0" fill="#000000" transform="matrix(1.00, 0.00, -0.00, -1.00, 2.0, 7.0)">M</text><text xml:space="preserve" font-family="HelveticaNeue-Light" font-size="24.0" fill="#000000" transform="matrix(1.00, 0.00, -0.00, -1.00, 21.7, 7.0)">o</text><text xml:space="preserve" font-family="HelveticaNeue-Light" font-size="24.0" fill="#000000" transform="matrix(1.00, 0.00, -0.00, -1.00, 35.0, 7.0)">s</text><text xml:space="preserve" font-family="HelveticaNeue-Light" font-size="24.0" fill="#000000" transform="matrix(1.00, 0.00, -0.00, -1.00, 46.6, 7.0)">t</text><text xml:space="preserve" font-family="HelveticaNeue-Light" font-size="24.0" fill="#000000" transform="matrix(1.00, 0.00, -0.00, -1.00, 53.7, 7.0)">l</text><text xml:space="preserve" font-family="HelveticaNeue-Light" font-size="24.0" fill="#000000" transform="matrix(1.00, 0.00, -0.00, -1.00, 58.1, 7.0)">y</text><text xml:space="preserve" font-family="HelveticaNeue-Light" font-size="24.0" fill="#000000" transform="matrix(1.00, 0.00, -0.00, -1.00, 69.2, 7.0)"> </text><text xml:space="preserve" font-family="HelveticaNeue-Light" font-size="24.0" fill="#000000" transform="matrix(1.00, 0.00, -0.00, -1.00, 75.9, 7.0)">s</text><text xml:space="preserve" font-family="HelveticaNeue-Light" font-size="24.0" fill="#000000" transform="matrix(1.00, 0.00, -0.00, -1.00, 87.5, 7.0)">h</text><text xml:space="preserve" font-family="HelveticaNeue-Light" font-size="24.0" fill="#000000" transform="matrix(1.00, 0.00, -0.00, -1.00, 100.4, 7.0)">o</text><text xml:space="preserve" font-family="HelveticaNeue-Light" font-size="24.0" fill="#000000" transform="matrix(1.00, 0.00, -0.00, -1.00, 113.7, 7.0)">w</text><text xml:space="preserve" font-family="HelveticaNeue-Light" font-size="24.0" fill="#000000" transform="matrix(1.00, 0.00, -0.00, -1.00, 131.5, 7.0)">n</text><text xml:space="preserve" font-family="HelveticaNeue-Light" font-size="24.0" fill="#000000" transform="matrix(1.00, 0.00, -0.00, -1.00, 144.4, 7.0)"> </text><text xml:space="preserve" font-family="HelveticaNeue-Light" font-size="24.0" fill="#000000" transform="matrix(1.00, 0.00, -0.00, -1.00, 151.0, 7.0)">d</text><text xml:space="preserve" font-family="HelveticaNeue-Light" font-size="24.0" fill="#000000" transform="matrix(1.00, 0.00, -0.00, -1.00, 164.8, 7.0)">u</text><text xml:space="preserve" font-family="HelveticaNeue-Light" font-size="24.0" fill="#000000" transform="matrix(1.00, 0.00, -0.00, -1.00, 177.7, 7.0)">r</text><text xml:space="preserve" font-family="HelveticaNeue-Light" font-size="24.0" fill="#000000" transform="matrix(1.00, 0.00, -0.00, -1.00, 185.3, 7.0)">i</text><text xml:space="preserve" font-family="HelveticaNeue-Light" font-size="24.0" fill="#000000" transform="matrix(1.00, 0.00, -0.00, -1.00, 189.7, 7.0)">n</text><text xml:space="preserve" font-family="HelveticaNeue-Light" font-size="24.0" fill="#000000" transform="matrix(1.00, 0.00, -0.00, -1.00, 202.6, 7.0)">g</text><text xml:space="preserve" font-family="HelveticaNeue-Light" font-size="24.0" fill="#000000" transform="matrix(1.00, 0.00, -0.00, -1.00, 215.9, 7.0)"> </text><text xml:space="preserve" font-family="HelveticaNeue-Light" font-size="24.0" fill="#000000" transform="matrix(1.00, 0.00, -0.00, -1.00, 222.6, 7.0)">P</text><text xml:space="preserve" font-family="HelveticaNeue-Light" font-size="24.0" fill="#000000" transform="matrix(1.00, 0.00, -0.00, -1.00, 237.7, 7.0)">r</text><text xml:space="preserve" font-family="HelveticaNeue-Light" font-size="24.0" fill="#000000" transform="matrix(1.00, 0.00, -0.00, -1.00, 245.3, 7.0)">a</text><text xml:space="preserve" font-family="HelveticaNeue-Light" font-size="24.0" fill="#000000" transform="matrix(1.00, 0.00, -0.00, -1.00, 257.7, 7.0)">y</text><text xml:space="preserve" font-family="HelveticaNeue-Light" font-size="24.0" fill="#000000" transform="matrix(1.00, 0.00, -0.00, -1.00, 268.9, 7.0)">e</text><text xml:space="preserve" font-family="HelveticaNeue-Light" font-size="24.0" fill="#000000" transform="matrix(1.00, 0.00, -0.00, -1.00, 281.3, 7.0)">r</text><text xml:space="preserve" font-family="HelveticaNeue-Light" font-size="24.0" fill="#000000" transform="matrix(1.00, 0.00, -0.00, -1.00, 288.9, 7.0)"> </text><text xml:space="preserve" font-family="HelveticaNeue-Light" font-size="24.0" fill="#000000" transform="matrix(1.00, 0.00, -0.00, -1.00, 295.5, 7.0)">T</text><text xml:space="preserve" font-family="HelveticaNeue-Light" font-size="24.0" fill="#000000" transform="matrix(1.00, 0.00, -0.00, -1.00, 309.5, 7.0)">i</text><text xml:space="preserve" font-family="HelveticaNeue-Light" font-size="24.0" fill="#000000" transform="matrix(1.00, 0.00, -0.00, -1.00, 313.9, 7.0)">m</text><text xml:space="preserve" font-family="HelveticaNeue-Light" font-size="24.0" fill="#000000" transform="matrix(1.00, 0.00, -0.00, -1.00, 333.9, 7.0)">e</text><text xml:space="preserve" font-family="HelveticaNeue-Light" font-size="24.0" fill="#000000" transform="matrix(1.00, 0.00, -0.00, -1.00, 346.4, 7.0)">s</text><text xml:space="preserve" font-family="HelveticaNeue-Light" font-size="24.0" fill="#000000" transform="matrix(1.00, 0.00, -0.00, -1.00, 357.9, 7.0)">.</text></g></svg>