<?xml version="1.0" encoding="UTF-8" standalone="no"?><svg xmlns="http://www.w3.org/2000/svg" xmlns:xlink="http://www.w3.org/1999/xlink" clip-rule="evenodd" stroke-miterlimit="4.00" viewBox="0 0 333 25"><desc>SVG generated by Keynote</desc><defs></defs><g transform="matrix(1.00, 0.00, -0.00, -1.00, 0.0, 25.0)"><text xml:space="preserve" font-family="HelveticaNeue-Light" font-size="28.0" fill="#FEFFFF" transform="matrix(1.00, 0.00, -0.00, -1.00, 0.0, 3.0)">P</text><text xml:space="preserve" font-family="HelveticaNeue-Light" font-size="28.0" fill="#FEFFFF" transform="matrix(1.00, 0.00, -0.00, -1.00, 15.6, 3.0)">A</text><text xml:space="preserve" font-family="HelveticaNeue-Light" font-size="28.0" fill="#FEFFFF" transform="matrix(1.00, 0.00, -0.00, -1.00, 33.2, 3.0)">S</text><text xml:space="preserve" font-family="HelveticaNeue-Light" font-size="28.0" fill="#FEFFFF" transform="matrix(1.00, 0.00, -0.00, -1.00, 50.8, 3.0)">S</text><text xml:space="preserve" font-family="HelveticaNeue-Light" font-size="28.0" fill="#FEFFFF" transform="matrix(1.00, 0.00, -0.00, -1.00, 68.5, 3.0)">I</text><text xml:space="preserve" font-family="HelveticaNeue-Light" font-size="28.0" fill="#FEFFFF" transform="matrix(1.00, 0.00, -0.00, -1.00, 74.7, 3.0)">V</text><text xml:space="preserve" font-family="HelveticaNeue-Light" font-size="28.0" fill="#FEFFFF" transform="matrix(1.00, 0.00, -0.00, -1.00, 91.3, 3.0)">E</text><text xml:space="preserve" font-family="HelveticaNeue-Light" font-size="28.0" fill="#FEFFFF" transform="matrix(1.00, 0.00, -0.00, -1.00, 107.9, 3.0)"> </text><text xml:space="preserve" font-family="HelveticaNeue-Light" font-size="28.0" fill="#FEFFFF" transform="matrix(1.00, 0.00, -0.00, -1.00, 115.7, 3.0)">V</text><text xml:space="preserve" font-family="HelveticaNeue-Light" font-size="28.0" fill="#FEFFFF" transform="matrix(1.00, 0.00, -0.00, -1.00, 132.3, 3.0)">I</text><text xml:space="preserve" font-family="HelveticaNeue-Light" font-size="28.0" fill="#FEFFFF" transform="matrix(1.00, 0.00, -0.00, -1.00, 138.5, 3.0)">D</text><text xml:space="preserve" font-family="HelveticaNeue-Light" font-size="28.0" fill="#FEFFFF" transform="matrix(1.00, 0.00, -0.00, -1.00, 157.7, 3.0)">E</text><text xml:space="preserve" font-family="HelveticaNeue-Light" font-size="28.0" fill="#FEFFFF" transform="matrix(1.00, 0.00, -0.00, -1.00, 174.3, 3.0)">O</text><text xml:space="preserve" font-family="HelveticaNeue-Light" font-size="28.0" fill="#FEFFFF" transform="matrix(1.00, 0.00, -0.00, -1.00, 195.0, 3.0)"> </text><text xml:space="preserve" font-family="HelveticaNeue-Light" font-size="28.0" fill="#FEFFFF" transform="matrix(1.00, 0.00, -0.00, -1.00, 202.8, 3.0)">C</text><text xml:space="preserve" font-family="HelveticaNeue-Light" font-size="28.0" fill="#FEFFFF" transform="matrix(1.00, 0.00, -0.00, -1.00, 222.5, 3.0)">O</text><text xml:space="preserve" font-family="HelveticaNeue-Light" font-size="28.0" fill="#FEFFFF" transform="matrix(1.00, 0.00, -0.00, -1.00, 243.3, 3.0)">N</text><text xml:space="preserve" font-family="HelveticaNeue-Light" font-size="28.0" fill="#FEFFFF" transform="matrix(1.00, 0.00, -0.00, -1.00, 263.0, 3.0)">T</text><text xml:space="preserve" font-family="HelveticaNeue-Light" font-size="28.0" fill="#FEFFFF" transform="matrix(1.00, 0.00, -0.00, -1.00, 278.6, 3.0)">E</text><text xml:space="preserve" font-family="HelveticaNeue-Light" font-size="28.0" fill="#FEFFFF" transform="matrix(1.00, 0.00, -0.00, -1.00, 295.2, 3.0)">N</text><text xml:space="preserve" font-family="HelveticaNeue-Light" font-size="28.0" fill="#FEFFFF" transform="matrix(1.00, 0.00, -0.00, -1.00, 314.9, 3.0)">T</text></g></svg>