<?xml version="1.0" encoding="UTF-8" standalone="no"?><svg xmlns="http://www.w3.org/2000/svg" xmlns:xlink="http://www.w3.org/1999/xlink" clip-rule="evenodd" stroke-miterlimit="4.00" viewBox="0 0 1705 43"><desc>SVG generated by Keynote</desc><defs></defs><g transform="matrix(1.00, 0.00, -0.00, -1.00, 0.0, 43.0)"><path d="M 21.8 41.3 L 1683.7 41.3 C 1687.0 41.3 1690.1 41.3 1693.0 40.7 C 1698.0 39.4 1701.8 35.5 1703.2 30.5 C 1703.8 27.7 1703.8 24.5 1703.8 21.2 C 1703.8 17.9 1703.8 14.8 1703.2 11.9 C 1701.8 6.9 1698.0 3.1 1693.0 1.8 C 1690.1 1.1 1687.0 1.1 1683.7 1.1 L 21.8 1.1 C 18.5 1.1 15.4 1.1 12.5 1.8 C 7.5 3.1 3.7 6.9 2.3 11.9 C 1.7 14.8 1.7 17.9 1.7 21.2 C 1.7 24.5 1.7 27.7 2.3 30.5 C 3.7 35.5 7.5 39.4 12.5 40.7 C 15.4 41.3 18.5 41.3 21.8 41.3 Z M 21.8 41.3 " fill="#000000"></path></g></svg>