<?xml version="1.0" encoding="UTF-8" standalone="no"?><svg xmlns="http://www.w3.org/2000/svg" xmlns:xlink="http://www.w3.org/1999/xlink" clip-rule="evenodd" stroke-miterlimit="4.00" viewBox="0 0 923 25"><desc>SVG generated by Keynote</desc><defs></defs><g transform="matrix(1.00, 0.00, -0.00, -1.00, 0.0, 25.0)"><text xml:space="preserve" font-family="HelveticaNeue-Light" font-size="28.0" fill="#FEFFFF" transform="matrix(1.00, 0.00, -0.00, -1.00, 2.0, 3.0)">S</text><text xml:space="preserve" font-family="HelveticaNeue-Light" font-size="28.0" fill="#FEFFFF" transform="matrix(1.00, 0.00, -0.00, -1.00, 19.6, 3.0)">O</text><text xml:space="preserve" font-family="HelveticaNeue-Light" font-size="28.0" fill="#FEFFFF" transform="matrix(1.00, 0.00, -0.00, -1.00, 40.4, 3.0)">C</text><text xml:space="preserve" font-family="HelveticaNeue-Light" font-size="28.0" fill="#FEFFFF" transform="matrix(1.00, 0.00, -0.00, -1.00, 60.1, 3.0)">I</text><text xml:space="preserve" font-family="HelveticaNeue-Light" font-size="28.0" fill="#FEFFFF" transform="matrix(1.00, 0.00, -0.00, -1.00, 66.3, 3.0)">A</text><text xml:space="preserve" font-family="HelveticaNeue-Light" font-size="28.0" fill="#FEFFFF" transform="matrix(1.00, 0.00, -0.00, -1.00, 84.0, 3.0)">L</text><text xml:space="preserve" font-family="HelveticaNeue-Light" font-size="28.0" fill="#FEFFFF" transform="matrix(1.00, 0.00, -0.00, -1.00, 99.0, 3.0)"> </text><text xml:space="preserve" font-family="HelveticaNeue-Light" font-size="28.0" fill="#FEFFFF" transform="matrix(1.00, 0.00, -0.00, -1.00, 106.8, 3.0)">N</text><text xml:space="preserve" font-family="HelveticaNeue-Light" font-size="28.0" fill="#FEFFFF" transform="matrix(1.00, 0.00, -0.00, -1.00, 126.5, 3.0)">E</text><text xml:space="preserve" font-family="HelveticaNeue-Light" font-size="28.0" fill="#FEFFFF" transform="matrix(1.00, 0.00, -0.00, -1.00, 143.1, 3.0)">T</text><text xml:space="preserve" font-family="HelveticaNeue-Light" font-size="28.0" fill="#FEFFFF" transform="matrix(1.00, 0.00, -0.00, -1.00, 158.7, 3.0)">W</text><text xml:space="preserve" font-family="HelveticaNeue-Light" font-size="28.0" fill="#FEFFFF" transform="matrix(1.00, 0.00, -0.00, -1.00, 184.1, 3.0)">O</text><text xml:space="preserve" font-family="HelveticaNeue-Light" font-size="28.0" fill="#FEFFFF" transform="matrix(1.00, 0.00, -0.00, -1.00, 204.8, 3.0)">R</text><text xml:space="preserve" font-family="HelveticaNeue-Light" font-size="28.0" fill="#FEFFFF" transform="matrix(1.00, 0.00, -0.00, -1.00, 223.5, 3.0)">K</text><text xml:space="preserve" font-family="HelveticaNeue-Light" font-size="28.0" fill="#FEFFFF" transform="matrix(1.00, 0.00, -0.00, -1.00, 241.6, 3.0)">S</text><text xml:space="preserve" font-family="HelveticaNeue-Light" font-size="28.0" fill="#FEFFFF" transform="matrix(1.00, 0.00, -0.00, -1.00, 259.3, 3.0)"> </text><text xml:space="preserve" font-family="HelveticaNeue-Light" font-size="28.0" fill="#FEFFFF" transform="matrix(1.00, 0.00, -0.00, -1.00, 267.0, 3.0)">I</text><text xml:space="preserve" font-family="HelveticaNeue-Light" font-size="28.0" fill="#FEFFFF" transform="matrix(1.00, 0.00, -0.00, -1.00, 273.3, 3.0)">N</text><text xml:space="preserve" font-family="HelveticaNeue-Light" font-size="28.0" fill="#FEFFFF" transform="matrix(1.00, 0.00, -0.00, -1.00, 293.0, 3.0)">T</text><text xml:space="preserve" font-family="HelveticaNeue-Light" font-size="28.0" fill="#FEFFFF" transform="matrix(1.00, 0.00, -0.00, -1.00, 308.5, 3.0)">E</text><text xml:space="preserve" font-family="HelveticaNeue-Light" font-size="28.0" fill="#FEFFFF" transform="matrix(1.00, 0.00, -0.00, -1.00, 325.1, 3.0)">G</text><text xml:space="preserve" font-family="HelveticaNeue-Light" font-size="28.0" fill="#FEFFFF" transform="matrix(1.00, 0.00, -0.00, -1.00, 345.9, 3.0)">R</text><text xml:space="preserve" font-family="HelveticaNeue-Light" font-size="28.0" fill="#FEFFFF" transform="matrix(1.00, 0.00, -0.00, -1.00, 364.6, 3.0)">A</text><text xml:space="preserve" font-family="HelveticaNeue-Light" font-size="28.0" fill="#FEFFFF" transform="matrix(1.00, 0.00, -0.00, -1.00, 380.3, 3.0)">T</text><text xml:space="preserve" font-family="HelveticaNeue-Light" font-size="28.0" fill="#FEFFFF" transform="matrix(1.00, 0.00, -0.00, -1.00, 395.9, 3.0)">I</text><text xml:space="preserve" font-family="HelveticaNeue-Light" font-size="28.0" fill="#FEFFFF" transform="matrix(1.00, 0.00, -0.00, -1.00, 402.1, 3.0)">O</text><text xml:space="preserve" font-family="HelveticaNeue-Light" font-size="28.0" fill="#FEFFFF" transform="matrix(1.00, 0.00, -0.00, -1.00, 422.8, 3.0)">N</text><text xml:space="preserve" font-family="HelveticaNeue-Light" font-size="28.0" fill="#FEFFFF" transform="matrix(1.00, 0.00, -0.00, -1.00, 442.6, 3.0)"> </text><text xml:space="preserve" font-family="HelveticaNeue-Light" font-size="28.0" fill="#FEFFFF" transform="matrix(1.00, 0.00, -0.00, -1.00, 450.3, 3.0)">/</text><text xml:space="preserve" font-family="HelveticaNeue-Light" font-size="28.0" fill="#FEFFFF" transform="matrix(1.00, 0.00, -0.00, -1.00, 459.7, 3.0)"> </text><text xml:space="preserve" font-family="HelveticaNeue-Light" font-size="28.0" fill="#FEFFFF" transform="matrix(1.00, 0.00, -0.00, -1.00, 467.4, 3.0)">S</text><text xml:space="preserve" font-family="HelveticaNeue-Light" font-size="28.0" fill="#FEFFFF" transform="matrix(1.00, 0.00, -0.00, -1.00, 485.1, 3.0)">O</text><text xml:space="preserve" font-family="HelveticaNeue-Light" font-size="28.0" fill="#FEFFFF" transform="matrix(1.00, 0.00, -0.00, -1.00, 505.8, 3.0)">C</text><text xml:space="preserve" font-family="HelveticaNeue-Light" font-size="28.0" fill="#FEFFFF" transform="matrix(1.00, 0.00, -0.00, -1.00, 525.5, 3.0)">I</text><text xml:space="preserve" font-family="HelveticaNeue-Light" font-size="28.0" fill="#FEFFFF" transform="matrix(1.00, 0.00, -0.00, -1.00, 531.8, 3.0)">A</text><text xml:space="preserve" font-family="HelveticaNeue-Light" font-size="28.0" fill="#FEFFFF" transform="matrix(1.00, 0.00, -0.00, -1.00, 549.4, 3.0)">L</text><text xml:space="preserve" font-family="HelveticaNeue-Light" font-size="28.0" fill="#FEFFFF" transform="matrix(1.00, 0.00, -0.00, -1.00, 564.4, 3.0)"> </text><text xml:space="preserve" font-family="HelveticaNeue-Light" font-size="28.0" fill="#FEFFFF" transform="matrix(1.00, 0.00, -0.00, -1.00, 572.2, 3.0)">R</text><text xml:space="preserve" font-family="HelveticaNeue-Light" font-size="28.0" fill="#FEFFFF" transform="matrix(1.00, 0.00, -0.00, -1.00, 590.9, 3.0)">E</text><text xml:space="preserve" font-family="HelveticaNeue-Light" font-size="28.0" fill="#FEFFFF" transform="matrix(1.00, 0.00, -0.00, -1.00, 607.5, 3.0)">S</text><text xml:space="preserve" font-family="HelveticaNeue-Light" font-size="28.0" fill="#FEFFFF" transform="matrix(1.00, 0.00, -0.00, -1.00, 625.1, 3.0)">P</text><text xml:space="preserve" font-family="HelveticaNeue-Light" font-size="28.0" fill="#FEFFFF" transform="matrix(1.00, 0.00, -0.00, -1.00, 642.8, 3.0)">O</text><text xml:space="preserve" font-family="HelveticaNeue-Light" font-size="28.0" fill="#FEFFFF" transform="matrix(1.00, 0.00, -0.00, -1.00, 663.5, 3.0)">N</text><text xml:space="preserve" font-family="HelveticaNeue-Light" font-size="28.0" fill="#FEFFFF" transform="matrix(1.00, 0.00, -0.00, -1.00, 683.2, 3.0)">S</text><text xml:space="preserve" font-family="HelveticaNeue-Light" font-size="28.0" fill="#FEFFFF" transform="matrix(1.00, 0.00, -0.00, -1.00, 700.9, 3.0)">I</text><text xml:space="preserve" font-family="HelveticaNeue-Light" font-size="28.0" fill="#FEFFFF" transform="matrix(1.00, 0.00, -0.00, -1.00, 707.1, 3.0)">B</text><text xml:space="preserve" font-family="HelveticaNeue-Light" font-size="28.0" fill="#FEFFFF" transform="matrix(1.00, 0.00, -0.00, -1.00, 725.8, 3.0)">I</text><text xml:space="preserve" font-family="HelveticaNeue-Light" font-size="28.0" fill="#FEFFFF" transform="matrix(1.00, 0.00, -0.00, -1.00, 732.0, 3.0)">L</text><text xml:space="preserve" font-family="HelveticaNeue-Light" font-size="28.0" fill="#FEFFFF" transform="matrix(1.00, 0.00, -0.00, -1.00, 747.0, 3.0)">I</text><text xml:space="preserve" font-family="HelveticaNeue-Light" font-size="28.0" fill="#FEFFFF" transform="matrix(1.00, 0.00, -0.00, -1.00, 753.2, 3.0)">T</text><text xml:space="preserve" font-family="HelveticaNeue-Light" font-size="28.0" fill="#FEFFFF" transform="matrix(1.00, 0.00, -0.00, -1.00, 768.8, 3.0)">Y</text><text xml:space="preserve" font-family="HelveticaNeue-Light" font-size="28.0" fill="#FEFFFF" transform="matrix(1.00, 0.00, -0.00, -1.00, 785.9, 3.0)"> </text><text xml:space="preserve" font-family="HelveticaNeue-Light" font-size="28.0" fill="#FEFFFF" transform="matrix(1.00, 0.00, -0.00, -1.00, 793.7, 3.0)">C</text><text xml:space="preserve" font-family="HelveticaNeue-Light" font-size="28.0" fill="#FEFFFF" transform="matrix(1.00, 0.00, -0.00, -1.00, 813.4, 3.0)">O</text><text xml:space="preserve" font-family="HelveticaNeue-Light" font-size="28.0" fill="#FEFFFF" transform="matrix(1.00, 0.00, -0.00, -1.00, 834.2, 3.0)">N</text><text xml:space="preserve" font-family="HelveticaNeue-Light" font-size="28.0" fill="#FEFFFF" transform="matrix(1.00, 0.00, -0.00, -1.00, 853.9, 3.0)">T</text><text xml:space="preserve" font-family="HelveticaNeue-Light" font-size="28.0" fill="#FEFFFF" transform="matrix(1.00, 0.00, -0.00, -1.00, 869.4, 3.0)">E</text><text xml:space="preserve" font-family="HelveticaNeue-Light" font-size="28.0" fill="#FEFFFF" transform="matrix(1.00, 0.00, -0.00, -1.00, 886.0, 3.0)">N</text><text xml:space="preserve" font-family="HelveticaNeue-Light" font-size="28.0" fill="#FEFFFF" transform="matrix(1.00, 0.00, -0.00, -1.00, 905.8, 3.0)">T</text></g></svg>